<svg xmlns="http://www.w3.org/2000/svg" viewBox="0 0 512 512" id="bhagavad-gita">
  <path fill="#ff7b4f" d="M442.002 417.051 69.998 454.534V49.231A45.731 45.731 0 0 1 115.729 3.5h305.948a20.325 20.325 0 0 1 20.325 20.325Z"></path>
  <path fill="#f24f2a" d="M421.677 3.5h-30a20.325 20.325 0 0 1 20.325 20.325v393.226h30V23.825A20.325 20.325 0 0 0 421.677 3.5Z"></path>
  <path fill="#ffbc5b" d="M69.998 49.231v405.303h38.124l38.314-19.021V3.5H115.73a45.731 45.731 0 0 0-45.731 45.731Z"></path>
  <path fill="#f9f7f8" d="M421.674 493.259h-313.56a38.11 38.11 0 0 1-38.116-38.104 38.11 38.11 0 0 1 38.115-38.104h333.889v55.886a20.325 20.325 0 0 1-20.328 20.322Z"></path>
  <path fill="#e2e2e2" d="M412.002 417.051v55.886a20.325 20.325 0 0 1-20.328 20.322h30a20.325 20.325 0 0 0 20.328-20.322V417.05Z"></path>
  <path fill="#fff" d="M358.383 375.335H227.814a3.5 3.5 0 1 1 0-7h130.569a3.5 3.5 0 0 1 0 7Z"></path>
  <rect width="186.002" height="35.563" x="199.59" y="49.224" fill="#fff" rx="8.13"></rect>
  <path fill="#ff7b4f" d="m201.046 507.971-21.397-10.53a5.083 5.083 0 0 0-4.49 0l-21.396 10.53a5.082 5.082 0 0 1-7.327-4.558v-48.258h61.937v48.258a5.082 5.082 0 0 1-7.327 4.558Z"></path>
  <path fill="#e2e2e2" d="M414.002 458.655H108.736a3.5 3.5 0 0 1 0-7h305.266a3.5 3.5 0 0 1 0 7Z"></path>
  <path fill="#fff" d="M376.787 181.849h-2.339v-15.212a35.016 35.016 0 1 0-70.032 0v15.212h-2.339a7 7 0 0 0 0 14h2.339v69.77l-51.678-38.357c9.95-8.282 25.98-23.893 25.98-38.534a36.871 36.871 0 0 0-73.742 0c0 14.604 15.948 30.173 25.904 38.472l-33.985 28.505a7 7 0 1 0 8.997 10.727l35.902-30.114 15.213 13.06-40.099 36.39a7 7 0 1 0 9.408 10.368l41.396-37.567 36.704 25.502v31.1a7 7 0 0 0 14 0V195.85h42.032v119.323a7 7 0 0 0 14 0V195.849h2.34a7 7 0 0 0 0-14Zm-157.811 6.879a22.871 22.871 0 0 1 45.742 0c0 7.842-12.288 20.811-22.875 29.349-10.586-8.524-22.867-21.482-22.867-29.35Zm99.44-6.88v-15.211a21.016 21.016 0 1 1 42.032 0v15.212Z"></path>
</svg>
